<?xml version="1.0" encoding="UTF-8"?>
<svg version="1.1" xmlns="http://www.w3.org/2000/svg" width="512" height="512">
<path d="M0 0 C6.77924526 5.07087545 10.42591653 12.85542565 14.45605469 20.10058594 C16.67804874 24.06770774 18.9627621 27.99791036 21.24194336 31.93237305 C23.17543764 35.27105052 25.10228532 38.6134834 27.02734375 41.95703125 C30.83232318 48.56458785 34.6421901 55.16931443 38.453125 61.7734375 C39.7031485 63.94009061 40.95314847 66.10675729 42.203125 68.2734375 C42.821875 69.3459375 43.440625 70.4184375 44.078125 71.5234375 C139.703125 237.2734375 139.703125 237.2734375 141.57836914 240.52392578 C142.82748018 242.68900821 144.07666629 244.85404732 145.32592773 247.01904297 C148.46514809 252.45959456 151.60303063 257.90090966 154.73828125 263.34375 C160.76059829 273.79549949 166.79981837 284.23643298 172.890625 294.6484375 C178.31233678 303.91843527 183.65517415 313.23175502 188.97235107 322.56188965 C194.17065085 331.68113389 199.42711543 340.76476229 204.7277832 349.82495117 C209.69626742 358.32045887 214.62258045 366.839843 219.53027344 375.37060547 C222.42496575 380.4008391 225.32883871 385.42456701 228.2734375 390.42578125 C228.78173096 391.29227295 229.29002441 392.15876465 229.8137207 393.05151367 C230.7477054 394.64165913 231.68600259 396.2292836 232.62963867 397.8137207 C237.81561021 406.66240499 239.11574266 414.49507429 237.953125 424.7734375 C235.21361312 433.34294264 230.83033787 439.71463948 222.83665043 443.87495762 C213.73851869 447.6835429 204.80390565 447.32932405 195.12034607 447.27464294 C193.20819262 447.27853955 191.29604207 447.28418287 189.38389832 447.29141384 C184.14902478 447.3061346 178.91445309 447.29600727 173.67958939 447.28167713 C168.02649037 447.27055213 162.37343317 447.28251498 156.72033691 447.29151917 C145.65393283 447.30544291 134.58764297 447.29790191 123.52124434 447.28284358 C110.63185282 447.26597302 97.74248968 447.26919505 84.85309053 447.27293766 C61.15994707 447.27899211 37.46687459 447.26322008 13.77374836 447.23775003 C-7.84478257 447.21463327 -29.46324661 447.2092483 -51.08178711 447.21948242 C-56.61865263 447.22208454 -62.15551816 447.22466958 -67.69238377 447.22708035 C-68.37408706 447.22737779 -69.05579035 447.22767524 -69.75815132 447.2279817 C-87.83580596 447.23560005 -105.91345268 447.22912223 -123.9911055 447.21838433 C-126.58278938 447.2168585 -129.17447326 447.21533814 -131.76615715 447.21382332 C-133.67885375 447.2126866 -133.67885375 447.2126866 -135.63019069 447.21152691 C-144.61349225 447.20678544 -153.5967787 447.20863454 -162.58008003 447.21288872 C-173.52778826 447.21781657 -184.47542733 447.21182553 -195.42311973 447.19199442 C-201.00812814 447.18212656 -206.59303126 447.17701195 -212.17804527 447.18488693 C-217.29216185 447.19195039 -222.4060661 447.18512336 -227.52015471 447.1672833 C-229.36857437 447.16324318 -231.21701342 447.16423136 -233.06542582 447.17080217 C-255.82280963 447.24476715 -255.82280963 447.24476715 -265.22265625 439.65625 C-271.39800351 433.28255111 -274.19156456 426.33548008 -274.296875 417.5859375 C-274.33554687 415.67748047 -274.33554687 415.67748047 -274.375 413.73046875 C-273.65263809 405.01912805 -269.19226929 398.24529333 -264.796875 390.8984375 C-263.52926987 388.75300464 -262.26236648 386.60715704 -260.99609375 384.4609375 C-260.34302246 383.3575 -259.68995117 382.2540625 -259.01708984 381.1171875 C-255.84416467 375.73225774 -252.72672296 370.31567001 -249.609375 364.8984375 C-248.3503102 362.71351298 -247.09119537 360.52861729 -245.83203125 358.34375 C-244.89447998 356.71614746 -244.89447998 356.71614746 -243.93798828 355.05566406 C-240.81007352 349.62683808 -237.67829052 344.20024469 -234.546875 338.7734375 C-233.29685621 336.60678167 -232.04685622 334.440115 -230.796875 332.2734375 C-183.296875 249.94010417 -135.796875 167.60677083 -88.296875 85.2734375 C-87.67804443 84.20077637 -87.05921387 83.12811523 -86.42163086 82.02294922 C-85.17251982 79.85786679 -83.92333371 77.69282768 -82.67407227 75.52783203 C-79.53485191 70.08728044 -76.39696937 64.64596534 -73.26171875 59.203125 C-67.04012259 48.40441805 -60.80835017 37.61157787 -54.546875 26.8359375 C-53.72014282 25.40773682 -53.72014282 25.40773682 -52.87670898 23.95068359 C-37.97983236 -1.635193 -37.97983236 -1.635193 -26.52734375 -4.7890625 C-16.59428799 -6.54103454 -8.60941646 -5.1590778 0 0 Z M-44.765625 163.6875 C-51.82053405 172.36780476 -52.73999129 180.94008887 -51.77945518 191.79571915 C-51.39716688 195.229456 -50.97280398 198.65555492 -50.53393555 202.08251953 C-50.37294373 203.37810791 -50.2119519 204.67369629 -50.04608154 206.00854492 C-49.60760946 209.53393426 -49.16126685 213.05828292 -48.71287513 216.58242273 C-48.33792879 219.53443565 -47.96667488 222.48690853 -47.59532577 225.43937576 C-46.71884138 232.40677719 -45.83570489 239.37331344 -44.94848633 246.33935547 C-44.0355981 253.5079641 -43.13452046 260.67798865 -42.23912781 267.84880173 C-41.46737745 274.02577408 -40.68802924 280.20175622 -39.90270072 286.3770169 C-39.43486408 290.05647537 -38.96991008 293.73623847 -38.51239586 297.416996 C-38.00196281 301.52049979 -37.47570314 305.62182614 -36.94799805 309.72314453 C-36.72573296 311.53593399 -36.72573296 311.53593399 -36.49897766 313.38534546 C-35.33381378 322.28485971 -34.20950596 329.68520119 -27.046875 335.7734375 C-22.51628756 338.79382913 -18.740775 339.0946944 -13.421875 338.0859375 C-8.81566765 336.29463464 -6.04756899 334.45250745 -3.49775696 330.17416382 C-1.77382206 326.13342795 -1.14794016 322.44270105 -0.58276367 318.11181641 C-0.46162044 317.24680323 -0.3404772 316.38179005 -0.21566296 315.49056435 C0.18649272 312.58641315 0.57109393 309.68030103 0.953125 306.7734375 C1.08955288 305.7529406 1.22598076 304.7324437 1.36654282 303.68102264 C2.44903721 295.57747598 3.4918261 287.46903968 4.52734375 279.359375 C4.85934942 276.76632558 5.19136561 274.17327751 5.52339172 271.58023071 C6.21352163 266.18670149 6.90127423 260.7928722 7.58813477 255.39892578 C8.37879358 249.19051929 9.17589738 242.98296191 9.97578305 236.77573812 C10.75171701 230.75148914 11.520708 224.72637218 12.28721046 218.70091629 C12.61167308 216.15785999 12.93820065 213.61506622 13.26688194 211.07255173 C13.72511821 207.52354195 14.17539221 203.97360557 14.6237793 200.42333984 C14.75932724 199.38732635 14.89487518 198.35131287 15.03453064 197.28390503 C16.59475038 184.76759585 16.62546399 174.38618125 9.390625 163.5234375 C4.20595077 157.12812868 -3.91261792 152.05779388 -12.046875 150.7734375 C-25.85347334 149.5182922 -35.58499104 153.46361218 -44.765625 163.6875 Z M-38.57421875 358.80859375 C-44.10539016 366.18837948 -45.29762392 373.66400069 -44.046875 382.7734375 C-41.82290601 390.14225642 -37.48710497 395.60350443 -31.046875 399.7734375 C-23.97843971 403.23351072 -17.1693239 403.79117083 -9.609375 401.7734375 C-2.6714516 399.20472538 3.08266797 394.14965463 6.515625 387.5859375 C9.32930858 380.03067603 9.2569693 371.75649074 5.953125 364.3984375 C2.09956753 357.72255625 -3.48333959 352.53547981 -10.921875 350.2109375 C-21.40898094 348.05182745 -31.34747222 350.72762186 -38.57421875 358.80859375 Z " fill="#FC0004" transform="translate(274.046875,35.2265625)"/>
<path d="M0 0 C4.43724305 2.52401882 7.63378924 6.27831345 9.25767517 11.14697266 C11.90130864 25.23483899 7.1657729 42.48709866 5.35524058 56.50286865 C4.90576939 59.99102242 4.46220273 63.47992726 4.01795959 66.96875 C3.17918503 73.54903203 2.33524487 80.12864033 1.48935944 86.70801163 C0.52517892 94.20953328 -0.43310763 101.71180431 -1.39094555 109.21413803 C-3.35832651 124.62275724 -5.33295837 140.03043804 -7.3125 155.4375 C-8.3025 155.7675 -9.2925 156.0975 -10.3125 156.4375 C-12.02247238 149.32002816 -13.09598497 142.23575111 -14.00830078 134.97631836 C-14.16464996 133.75890457 -14.32099915 132.54149078 -14.48208618 131.28718567 C-14.90663173 127.97362696 -15.3274126 124.65963573 -15.74615335 121.34534144 C-16.09739895 118.56930591 -16.45130443 115.79361209 -16.80520427 113.01791388 C-17.64035854 106.46741607 -18.47124432 99.91638682 -19.29931641 93.36499023 C-20.15150065 86.62334359 -21.01038457 79.88257492 -21.87265027 73.1422109 C-22.615197 67.33604555 -23.35383391 61.5293921 -24.08931339 55.72232729 C-24.527563 52.26225324 -24.96719688 48.80237048 -25.41049576 45.34293938 C-25.90453076 41.48576889 -26.39038547 37.62759163 -26.87548828 33.76928711 C-27.02195801 32.63399567 -27.16842773 31.49870422 -27.31933594 30.32901001 C-29.37041199 13.85368398 -29.37041199 13.85368398 -25.3125 6.4375 C-18.6286402 -1.51087382 -9.69278286 -4.2508991 0 0 Z " fill="#FC0004" transform="translate(265.3125,202.5625)"/>
<path d="M0 0 C3.58552881 1.63687185 4.79315055 2.68972583 7 6 C7.7765752 10.74937046 7.91541162 15.50939798 5.0625 19.5625 C1.10499853 22.71234811 -1.99269883 23.40058409 -7 23 C-10.80158096 21.42978178 -12.81186667 19.4350026 -15 16 C-15.66367922 12.59864398 -15.6069482 9.40994532 -15 6 C-10.68304603 0.43340146 -6.89762916 -0.75463505 0 0 Z " fill="#FC0004" transform="translate(260,400)"/>
</svg>
